#!OML:ASF F:\VICON\USERDATA\INSTALL\rory3\rory3.ASF
:FULLY-SPECIFIED
:DEGREES
1
root -1.2011600000000002 18.2504 -14.596099999999975 4.274569999999999 3.531389999999998 -2.614730000000006
lfemur -38.3406 0.023883700000005614 -19.5193
ltibia 31.64329999999998
lfoot 1.3813800000000005 -12.306000000000001
ltoes -21.743999999999996
rfemur 15.690599999999991 10.579499999999989 34.14180000000002
rtibia 47.141499999999965
rfoot 21.87950000000003 -8.03751
rtoes 4.05408
lowerback 1.0 2.1245499999999975 4.489239999999994
upperback -1.2661400000000012 3.6580600000000025 0.924549
thorax -8.80332 1.5710599999999986 -2.3019899999999964
lowerneck -18.1696 -6.348979999999997 -1.86567
upperneck 16.826399999999996 -8.964850000000002 3.67821
head 8.483889999999999 -3.962399999999999 0.40577299999999933
lclavicle -1.297069999999997e-14 -2.6637099999999974e-14
lhumerus -73.68860000000001 1.0868800000000016 91.9451
lradius 104.505
lwrist 32.8866
lhand -26.004599999999996 -0.8789710000000044
lfingers 7.12502
lthumb 0.5413319999999957 29.100100000000012
rclavicle -1.297069999999997e-14 -2.6637099999999974e-14
rhumerus -26.895699999999984 17.5672 -92.319
rradius 117.21999999999997
rwrist -20.4696
rhand -19.2171 1.0
rfingers 7.12502
rthumb 7.09557 16.52619999999999
2
root -1.1957500000000003 18.2115 -14.077000000000034 4.13031 3.735419999999999 -2.46549
lfemur -37.33520000000002 0.8367680000000035 -20.318099999999998
ltibia 30.3275
lfoot 1.0194999999999974 -12.1859
ltoes -22.688899999999997
rfemur 14.585399999999941 10.210999999999991 34.11040000000001
rtibia 51.41409999999997
rfoot 21.38659999999998 -8.93183
rtoes 7.810189999999991
lowerback 1.0 2.1733700000000016 4.2616199999999935
upperback -1.0256100000000004 3.6620500000000002 0.823244
thorax -8.50289 1.5934800000000011 -2.2725900000000023
lowerneck -18.1123 -6.367020000000004 -1.78143
upperneck 16.2374 -8.999250000000004 3.7746599999999995
head 8.276980000000002 -3.977759999999998 0.43088299999999996
lclavicle -2.6488099999999963e-14 -5.963540000000008e-15
lhumerus -72.9444 0.8500630000000049 92.1651
lradius 105.235
lwrist 32.6662
lhand -26.371900000000004 -0.5291209999999982
lfingers 7.12502
lthumb 0.18656899999999998 29.450499999999995
rclavicle -2.6488099999999963e-14 -5.963540000000008e-15
rhumerus -27.467099999999956 16.896199999999993 -92.4451
rradius 115.55300000000001
rwrist -19.926
rhand -18.9597 1.0
rfingers 7.12502
rthumb 7.34402 19.149399999999986
3
root -1.19114 18.1687 -13.554899999999982 3.98077 3.7891999999999926 -1.9663899999999965
lfemur -36.37130000000001 1.9544999999999995 -21.5881
ltibia 29.74560000000001
lfoot 0.9390740000000031 -12.2042
ltoes -22.26529999999998
rfemur 13.282500000000043 10.018399999999994 33.707599999999985
rtibia 55.938099999999984
rfoot 20.4223 -10.169099999999997
rtoes 17.88289999999999
lowerback 1.0 2.2126300000000017 3.619390000000006
upperback -0.8350370000000004 3.5898200000000036 0.6343440000000002
thorax -8.372149999999998 1.588869999999999 -2.0985099999999988
lowerneck -18.1282 -6.353479999999999 -1.6862299999999997
upperneck 15.7898 -8.992810000000006 3.8362299999999996
head 8.12792 -3.972760000000001 0.4436059999999996
lclavicle -4.075090000000007e-14 2.226389999999996e-14
lhumerus -72.15079999999999 0.6875330000000046 92.3004
lradius 105.96
lwrist 32.5319
lhand -26.281699999999997 -1.206110000000007
lfingers 7.12502
lthumb 0.2736749999999981 28.773500000000002
rclavicle -4.075090000000007e-14 2.226389999999996e-14
rhumerus -28.40409999999998 17.081699999999994 -93.0477
rradius 114.49899999999997
rwrist -21.4096
rhand -17.6515 1.0
rfingers 7.12502
rthumb 8.606640000000004 14.111999999999997
4
root -1.1885100000000002 18.1019 -13.040400000000034 3.7188800000000004 3.932549999999999 -1.5898500000000022
lfemur -35.58910000000004 3.003749999999999 -22.6909
ltibia 30.06260000000001
lfoot 0.643954999999997 -12.4491
ltoes -23.249399999999987
rfemur 11.853299999999939 9.65421 33.432400000000015
rtibia 60.729800000000004
rfoot 19.245300000000007 -11.401300000000006
rtoes 16.988600000000016
lowerback 1.0 2.2144600000000025 3.21408
upperback -0.6454160000000002 3.5104400000000022 0.40380399999999916
thorax -8.325099999999999 1.5656200000000013 -2.1084599999999982
lowerneck -18.1889 -6.4224799999999975 -1.6103899999999995
upperneck 15.5323 -9.126630000000008 4.00848
head 8.06166 -4.018809999999999 0.47327699999999984
lclavicle -3.62782e-15 -2.5842000000000044e-14
lhumerus -71.19199999999998 0.18659299999999046 92.439
lradius 106.588
lwrist 32.5637
lhand -26.137499999999992 -2.1184499999999824
lfingers 7.12502
lthumb 0.41289599999999593 27.860900000000004
rclavicle -3.62782e-15 -2.5842000000000044e-14
rhumerus -29.21839999999998 16.737700000000007 -93.5132
rradius 112.87400000000001
rwrist -20.4304
rhand -17.147200000000005 1.0
rfingers 7.12502
rthumb 9.093349999999997 16.221099999999993
